<svg xmlns="http://www.w3.org/2000/svg" version="1.1" xmlns:xlink="http://www.w3.org/1999/xlink" xmlns:svgjs="http://svgjs.dev/svgjs" viewBox="0 0 1920 1080"><rect width="1920" height="1080" fill="#6C3483"></rect><g transform="matrix(-2.112515728529184e-16,-1.15,1.15,-2.112515728529184e-16,300.6286315917971,1599.8729263305665)"><path d="M0,-1080C5.910181609808613,-997.1649395138149,30.95680993714659,-759.7544362520698,35.46108965885168,-582.9896370828895C39.96536938055676,-406.2248379137093,26.42839170442475,-210.80452443899202,27.025678330230505,-19.41120498491813C27.62296495603626,171.98211446915576,56.27959830165841,363.37135427825274,39.04480941368621,565.3702796415539C21.81002052571401,767.3692050048551,-83.66352046323054,1036.2330133010162,-76.3830549976027,1192.5823471948886C-69.10258953197486,1348.931681088761,69.99709304118618,1342.2300075372705,82.72760220745329,1503.466283004789C95.4581113737204,1664.7025584723074,13.787933701242215,2050.5777138341314,0,2160L 1920 2160 L 1920 -1080 Z" fill="url(&quot;#SvgjsLinearGradient1443&quot;)"></path><path d="M640,-1080C653.4077616459302,-1007.4351525531287,701.881464905054,-833.9557753974088,720.4465698755814,-644.6109153187717C739.0116748461088,-455.2660552401346,761.1613433308574,-139.97426515824148,751.3906298231644,56.069160471822784C741.6199163154714,252.11258610188705,696.6521999887492,363.11825187815305,661.8222888294235,531.6496384616138C626.9923776700979,700.1810250450745,530.0033727870989,890.1866710316323,542.4111628672106,1067.2574799725874C554.8189529473223,1244.3282889135426,720.0042231212956,1411.9507387694425,736.2690293100939,1594.0744921073447C752.5338354988921,1776.1982454452468,656.044838218349,2065.679082017891,640,2160L 1920 2160 L 1920 -1080 Z" fill="url(&quot;#SvgjsLinearGradient1444&quot;)"></path><path d="M1280,-1080C1265.7799951332472,-1002.8531477756476,1195.093718762348,-787.4142247363516,1194.6799707994828,-617.1188866538855C1194.2662228366175,-446.8235485714195,1277.062767717,-204.28057752350554,1277.5175122228077,-58.22797150520398C1277.9722567286153,87.82463451309758,1187.0447903473525,136.81757651769317,1197.4084378343287,259.19674945592385C1207.7720853213048,381.57592239415453,1330.1962370580466,510.5057349930998,1339.6993971446648,676.04706612418C1349.202557231283,841.5883972552601,1270.6688288444748,1068.0253331996423,1254.427398354038,1252.444736242405C1238.185967863601,1436.8641392851678,1237.9887139277164,1631.3042737544906,1242.2508142020433,1782.5634843807563C1246.5129144763703,1933.822695007022,1273.708469033674,2097.0939140634596,1280,2160L 1920 2160 L 1920 -1080 Z" fill="url(&quot;#SvgjsLinearGradient1445&quot;)"></path></g><defs><linearGradient x1="0.1" y1="0" x2="0" y2="1" id="SvgjsLinearGradient1443"><stop stop-color="#fc9f97" offset="0"></stop><stop stop-color="#fc97a0" offset="0"></stop></linearGradient><linearGradient x1="0.1" y1="0" x2="0" y2="1" id="SvgjsLinearGradient1444"><stop stop-color="#6C3483" offset="0"></stop><stop stop-color="#fdc4c9" offset="0.3333333333333333"></stop></linearGradient><linearGradient x1="0.1" y1="0" x2="0" y2="1" id="SvgjsLinearGradient1445"><stop stop-color="#fff2f1" offset="0"></stop><stop stop-color="#fff1f2" offset="0.6666666666666666"></stop></linearGradient></defs></svg>